<svg width="24" height="24" viewBox="0 0 24 24" xmlns="http://www.w3.org/2000/svg">
  <path d="M10.6 2.9c.5-1.2 2.3-1.2 2.8 0l.4 1a1.6 1.6 0 0 0 2 1l1-.4c1.2-.5 2.5.8 2 2l-.4 1a1.6 1.6 0 0 0 1 2l1 .4c1.2.5 1.2 2.3 0 2.8l-1 .4a1.6 1.6 0 0 0-1 2l.4 1c.5 1.2-.8 2.5-2 2l-1-.4a1.6 1.6 0 0 0-2 1l-.4 1c-.5 1.2-2.3 1.2-2.8 0l-.4-1a1.6 1.6 0 0 0-2-1l-1 .4c-1.2.5-2.5-.8-2-2l.4-1a1.6 1.6 0 0 0-1-2l-1-.4c-1.2-.5-1.2-2.3 0-2.8l1-.4a1.6 1.6 0 0 0 1-2l-.4-1c-.5-1.2.8-2.5 2-2l1 .4a1.6 1.6 0 0 0 2-1l.4-1z" fill="currentColor"/>
</svg>
